<svg xmlns="http://www.w3.org/2000/svg" width="16.085" height="15.961" viewBox="0 0 16.085 15.961">
  <g id="Group_643" data-name="Group 643" transform="translate(0.55 0.55)">
    <path id="Path_2941" data-name="Path 2941" d="M6.746,3h7.493a3.731,3.731,0,0,1,3.746,3.715v7.431a3.731,3.731,0,0,1-3.746,3.715H6.746A3.731,3.731,0,0,1,3,14.146V6.715A3.731,3.731,0,0,1,6.746,3Z" transform="translate(-3 -3)" fill="none" stroke="#2777f3" stroke-linecap="round" stroke-linejoin="round" stroke-width="1.1"/>
    <path id="Path_2942" data-name="Path 2942" d="M17.977,14.471a2.972,2.972,0,1,1-2.5-2.5A2.972,2.972,0,0,1,17.977,14.471Z" transform="translate(-7.511 -7.509)" fill="none" stroke="#2777f3" stroke-linecap="round" stroke-linejoin="round" stroke-width="1.1"/>
    <path id="Path_2943" data-name="Path 2943" d="M26.25,9.75h0" transform="translate(-14.636 -6.406)" fill="none" stroke="#2777f3" stroke-linecap="round" stroke-linejoin="round" stroke-width="1.1"/>
  </g>
</svg>
