<svg xmlns="http://www.w3.org/2000/svg" width="27" height="27" viewBox="0 0 27 27">
  <g id="call" transform="translate(-282 363.075)">
    <rect id="container" width="27" height="27" transform="translate(282 -363.075)" fill="none"/>
    <path id="Icon_feather-phone-call" data-name="Icon feather-phone-call" d="M16.379,12.633v2.205a1.47,1.47,0,0,1-1.6,1.47,14.547,14.547,0,0,1-6.344-2.257,14.334,14.334,0,0,1-4.41-4.41A14.547,14.547,0,0,1,1.766,3.269a1.47,1.47,0,0,1,1.463-1.6H5.434c.738-.007,1.654,0,1.654,0l1.079,3.9s-.675.573-1.079.981l-.934.934a11.761,11.761,0,0,0,4.41,4.41l.934-.934c.408-.4.838-.891.838-.891l4.043,1.117s.019.7,0,1.449Z" transform="translate(286.162 -358.729)" fill="none" stroke="#2777f3" stroke-linecap="round" stroke-linejoin="round" stroke-width="1"/>
  </g>
</svg>
