<svg xmlns="http://www.w3.org/2000/svg" width="18.737" height="15.247" viewBox="0 0 18.737 15.247">
  <path id="Icon_ionic-logo-twitter" data-name="Icon ionic-logo-twitter" d="M20.15,6.307a7.772,7.772,0,0,1-2.208.607,3.858,3.858,0,0,0,1.691-2.128,7.638,7.638,0,0,1-2.442.933,3.843,3.843,0,0,0-6.651,2.628,3.763,3.763,0,0,0,.1.877A10.894,10.894,0,0,1,2.716,5.2a3.852,3.852,0,0,0,1.2,5.138,3.754,3.754,0,0,1-1.747-.48v.048A3.847,3.847,0,0,0,5.249,13.68a3.869,3.869,0,0,1-1.012.135,3.627,3.627,0,0,1-.723-.071,3.85,3.85,0,0,0,3.593,2.672A7.707,7.707,0,0,1,2.33,18.063a7.792,7.792,0,0,1-.917-.056A10.745,10.745,0,0,0,7.3,19.747,10.872,10.872,0,0,0,18.244,8.8c0-.167,0-.334-.012-.5A7.825,7.825,0,0,0,20.15,6.307Z" transform="translate(-1.413 -4.5)" fill="#2777f3"/>
</svg>
